# xmcd
#
# Track frame offsets:
#	150
#	30093
#	63015
#	91684
#	149689
#	183354
#	210209
#
# Disc length: 3452 seconds
#
# Revision: 1
# Processed by: cddbd v1.5.2PL0 Copyright (c) Steve Scherf et al.
# Submitted via: audiograbber 1.83.01
#
DISCID=4c0d7a07
DTITLE=Brian Stoltz - Up All Night Live
DYEAR=2007
DGENRE=Blues
TTITLE0=I Been Up All Night
TTITLE1=Norma's House
TTITLE2=Sugar For Me
TTITLE3=Seven Desires
TTITLE4=What Is Real
TTITLE5=God, Guns and Money
TTITLE6=Voodoo
EXTD=
EXTT0=
EXTT1=
EXTT2=
EXTT3=
EXTT4=
EXTT5=
EXTT6=
PLAYORDER=
